<svg width="96" height="40" viewBox="0 0 96 40" fill="none" xmlns="http://www.w3.org/2000/svg">
<path fill-rule="evenodd" clip-rule="evenodd" d="M93.4013 11.325C94.3156 8.48535 95.1721 5.82532 95.1721 4.20212C95.1721 2.12765 94.0423 0 91.2529 0C88.4274 0 87.2976 2.12765 87.2976 4.21275C87.2976 5.80036 88.113 8.39005 88.9882 11.1694L88.9882 11.1695C89.7421 13.5638 90.5403 16.0989 90.8997 18.2553H91.4657C91.8491 16.1458 92.645 13.6739 93.4013 11.325ZM92.5087 26.1769C92.145 26.3309 91.7543 26.4111 91.3593 26.4127C90.9597 26.4158 90.5635 26.3394 90.1937 26.1879C89.824 26.0364 89.488 25.8129 89.2055 25.5304C88.9229 25.2478 88.6994 24.9119 88.5479 24.5421C88.3964 24.1723 88.32 23.7761 88.3231 23.3765C88.3231 21.7872 89.6572 20.4808 91.3593 20.4808C91.7452 20.4723 92.129 20.5409 92.488 20.6825C92.8471 20.8242 93.1743 21.036 93.4505 21.3057C93.7267 21.5753 93.9464 21.8974 94.0965 22.253C94.2467 22.6085 94.3245 22.9905 94.3253 23.3765C94.3329 23.7714 94.2619 24.1639 94.1164 24.5311C93.9709 24.8983 93.7539 25.2329 93.4779 25.5155C93.2019 25.798 92.8724 26.0229 92.5087 26.1769ZM52.3573 23.4468C51.4743 24.7531 49.6041 26.4127 46.9914 26.4127C44.8637 26.4127 44.0956 24.9659 43.8488 23.5531C42.6126 24.7893 40.5297 26.4127 38.1637 26.4127C35.019 26.4127 33.6425 24.6467 33.6425 22.2106C33.6425 18.5744 38.7275 16.7021 43.7765 15.2893V10.2404C43.7765 9.42764 43.2828 8.7936 42.3297 8.7936C41.1297 8.7936 40.4935 9.64467 40.4935 10.8404C40.4935 11.9361 41.1637 12.7553 41.8701 12.8893C41.5169 14.0191 39.8935 15.1064 38.085 15.1064C36.0382 15.1064 35.085 13.7298 35.085 12.0702C35.085 9.88083 37.9084 8.04467 42.3594 8.04467C46.8105 8.04467 49.7871 10.1702 49.7871 13.0298V22.5276C49.7871 23.517 50.3169 23.7659 50.8105 23.7659C51.3041 23.7659 51.6232 23.5872 52.0467 23.1999L52.3573 23.4468ZM43.7765 22.634V16.1021C42.0467 17.1255 40.2126 19.3148 40.2126 21.3276C40.2126 22.5276 40.9892 23.3404 42.1275 23.3404C42.7433 23.3069 43.3274 23.0567 43.7765 22.634ZM28.8489 14.3021C31.3574 14.2297 32.9105 13.1446 32.9105 11.2297C32.9105 9.67441 31.851 8.05101 29.202 8.05101C26.6701 8.05101 24.9297 10.5574 24.1169 13.0659V8.25952L18.5744 9.32334L16.3425 9.71058L16.4127 10.2042C17.8319 9.95738 18.1148 11.017 18.1148 13.2063V22.2467C18.1148 24.4361 17.7255 25.5658 16.3148 25.5658V26.0595H25.9191V25.5658C24.5063 25.5658 24.1169 24.4361 24.1169 22.2467V15.9616C24.1169 13.5957 25.4595 12.0404 26.9063 12.0404C28.1425 12.0404 28.7084 13.1701 28.8489 14.3021ZM8.47444 8.08508C3.2851 8.08508 0 12.2893 0 17.5851C0 23.0233 3.14254 26.3425 7.09147 26.3446C11.5404 26.3446 13.8659 23.0255 14.9297 19.6702L14.5042 19.4574C13.4106 20.7638 12.5617 21.6808 10.3021 21.6808C7.19572 21.6808 5.53615 18.4319 5.53615 15.0063C5.53615 12.1829 6.59573 8.8638 8.46593 8.8638C9.56167 8.8638 9.87869 10.5574 9.87869 13.1702C10.2042 13.9489 10.9808 14.3361 11.7936 14.3361C13.3468 14.3361 14.1595 13.2766 14.1595 11.8298C14.1595 9.53401 12.0063 8.08508 8.47444 8.08508ZM70.7253 8.89785V8.40423H63.6594V8.89785C66.0253 8.89785 66.4487 11.9 65.319 14.6191L63.1785 19.7744L59.8956 11.9361C59.0466 9.88721 58.7998 8.89785 60.2126 8.89785V8.40423H50.8701V8.89785C51.7211 8.89785 52.6105 9.88721 53.4232 11.9361L59.3615 26.2021H61.5445L67.1232 12.7127C67.7934 11.0872 68.9594 8.89785 70.7253 8.89785ZM85.4189 19.1042L85.8785 19.2447C85.1721 22.7042 82.6998 26.3425 77.721 26.3425C73.0615 26.3425 69.8487 22.2808 69.8487 17.1936C69.8487 12.2511 73.0636 8.083 78.3253 8.083C83.6168 8.08513 85.9146 13.1362 85.9146 15.7851H75.4274C75.604 18.8915 76.9445 21.6808 80.1572 21.6808C82.8764 21.6808 84.7487 20.4106 85.4189 19.1042ZM75.3913 14.8936H80.37C80.3359 12.4575 79.8764 8.85534 78.1444 8.85534C76.3104 8.86385 75.4274 12.1107 75.3913 14.8936ZM25.3999 36.9361C25.3985 37.3407 25.3173 37.7411 25.1608 38.1143C25.0044 38.4875 24.7758 38.8261 24.4882 39.1107C24.2006 39.3954 23.8596 39.6205 23.4848 39.773C23.11 39.9256 22.7088 40.0027 22.3042 39.9999H19.834V33.885H22.3042C22.7078 33.882 23.1081 33.9585 23.4822 34.1101C23.8563 34.2618 24.1968 34.4857 24.4843 34.7691C24.7718 35.0524 25.0006 35.3897 25.1577 35.7615C25.3148 36.1333 25.3971 36.5325 25.3999 36.9361ZM24.3042 36.9361C24.3042 36.4057 24.0935 35.897 23.7184 35.5219C23.3433 35.1468 22.8346 34.9361 22.3042 34.9361H20.9297V38.9361H22.3042C22.8346 38.9361 23.3433 38.7254 23.7184 38.3503C24.0935 37.9752 24.3042 37.4665 24.3042 36.9361ZM29.251 36.5956V34.936H32.6446V33.885H28.1574V39.9998H32.6552V38.936H29.251V37.6466H32.1063V36.5956H29.251ZM40.8871 38.936V39.9998H36.1297V33.885H37.2339V38.936H40.8871ZM44.468 33.885H43.3722V39.9998H44.468V33.885ZM47.3807 33.8871H48.5552L50.3509 38.5446L52.1445 33.8871H53.3211L50.9424 39.985H49.7573L47.3807 33.8871ZM57.1977 36.5956V34.936H60.5913V33.885H56.102V39.9998H60.5913V38.936H57.1977V37.6466H60.053V36.5956H57.1977ZM66.7764 37.9658L68.0296 39.9892H66.7402L65.5509 38.0743H64.6551V39.9892H63.5594V33.885H66.1126C66.6117 33.8821 67.0953 34.0578 67.4762 34.3804C67.857 34.7029 68.11 35.151 68.1894 35.6438C68.2688 36.1365 68.1693 36.6414 67.909 37.0672C67.6488 37.4931 67.2448 37.8118 66.77 37.9658H66.7764ZM64.6488 37.0169H66.1126C66.3885 37.0169 66.6531 36.9073 66.8483 36.7122C67.0434 36.517 67.153 36.2524 67.153 35.9765C67.153 35.7005 67.0434 35.4359 66.8483 35.2408C66.6531 35.0457 66.3885 34.9361 66.1126 34.9361H64.6488V37.0169ZM73.5423 39.9999V37.9744L75.9104 33.8957H74.6487L72.9934 36.8084L71.3381 33.8957H70.0764L72.4466 37.985V39.9999H73.5423Z" fill="black"/>
</svg>
