<svg width="24" height="24" viewBox="0 0 24 24" fill="none" xmlns="http://www.w3.org/2000/svg">
<path d="M8.35415 1.79169H6.89581V9.08335H8.35415V1.79169Z" fill="#F2EAE5"/>
<path d="M10.5417 8.35419C10.5417 9.12773 10.2344 9.8696 9.6874 10.4166C9.14041 10.9636 8.39855 11.2709 7.625 11.2709C6.85145 11.2709 6.10959 10.9636 5.56261 10.4166C5.01562 9.8696 4.70833 9.12773 4.70833 8.35419V1.79169H3.25V8.35419C3.25105 9.38733 3.61768 10.3868 4.28497 11.1755C4.95226 11.9642 5.87714 12.4914 6.89583 12.6636V22.2084H8.35417V12.6636C9.37286 12.4914 10.2977 11.9642 10.965 11.1755C11.6323 10.3868 11.999 9.38733 12 8.35419V1.79169H10.5417V8.35419Z" fill="#F2EAE5"/>
<path d="M16.375 1.79169H15.6458V22.2084H17.1041V14.9167H19.2916C19.6784 14.9167 20.0494 14.763 20.3228 14.4896C20.5963 14.2161 20.75 13.8451 20.75 13.4584V6.16669C20.7725 5.58611 20.6748 5.00714 20.4629 4.46613C20.251 3.92513 19.9296 3.43378 19.5187 3.02294C19.1079 2.61209 18.6165 2.29064 18.0755 2.07876C17.5345 1.86687 16.9556 1.76914 16.375 1.79169ZM19.2916 13.4584H17.1041V3.31565C19.2041 3.72398 19.2916 5.8969 19.2916 6.16669V13.4584Z" fill="#F2EAE5"/>
</svg>
